<?xml version="1.0" encoding="UTF-8"?> <svg xmlns="http://www.w3.org/2000/svg" width="191" height="191" viewBox="0 0 191 191" fill="none"> <path d="M52.525 64.4052C55.8389 60.7571 61.2633 57.3 69.2375 57.3C80.2391 57.3 87.3252 64.8636 89.8177 73.1626C92.2339 81.2514 90.7728 91.2598 83.8968 98.1645C81.5119 100.457 78.9823 102.594 76.3236 104.563L75.9416 104.859C73.2676 106.922 70.8801 108.794 68.7791 110.875C66.3438 113.32 64.3479 115.985 63.1923 119.375H83.5625C85.4621 119.375 87.2839 120.13 88.6272 121.473C89.9704 122.816 90.725 124.638 90.725 126.538C90.725 128.437 89.9704 130.259 88.6272 131.602C87.2839 132.945 85.4621 133.7 83.5625 133.7H54.9125C53.0129 133.7 51.1911 132.945 49.8478 131.602C48.5046 130.259 47.75 128.437 47.75 126.538C47.75 114.629 52.7542 106.645 58.6752 100.743C61.502 97.9161 64.5771 95.5382 67.1747 93.5232L67.2033 93.5041C69.9346 91.3935 72.0548 89.7509 73.7451 88.0605C76.3427 85.4438 77.25 81.1368 76.0944 77.269C74.9962 73.6305 72.5609 71.625 69.2375 71.625C65.8664 71.625 64.1282 72.9334 63.1255 74.0412C62.5388 74.6886 62.0614 75.4273 61.7121 76.2281V76.2567C61.127 78.0652 59.8475 79.5671 58.155 80.4322C56.4626 81.2972 54.4958 81.4545 52.6874 80.8694C50.8789 80.2843 49.377 79.0048 48.5119 77.3123C47.6469 75.6199 47.4896 73.6531 48.0747 71.8446L48.4089 70.9279C49.3902 68.5325 50.7796 66.3255 52.5155 64.4052H52.525ZM107.438 57.3C109.337 57.3 111.159 58.0546 112.502 59.3979C113.845 60.7411 114.6 62.5629 114.6 64.4625V90.725H128.925V64.4625C128.925 62.5629 129.68 60.7411 131.023 59.3979C132.366 58.0546 134.188 57.3 136.088 57.3C137.987 57.3 139.809 58.0546 141.152 59.3979C142.495 60.7411 143.25 62.5629 143.25 64.4625V126.251C143.25 128.151 142.495 129.972 141.152 131.316C139.809 132.659 137.987 133.414 136.088 133.414C134.188 133.414 132.366 132.659 131.023 131.316C129.68 129.972 128.925 128.151 128.925 126.251V105.05H107.438C105.538 105.05 103.716 104.295 102.373 102.952C101.03 101.609 100.275 99.7871 100.275 97.8875V64.4625C100.275 62.5629 101.03 60.7411 102.373 59.3979C103.716 58.0546 105.538 57.3 107.438 57.3V57.3ZM191 95.5C191 42.7554 148.245 0 95.5 0C42.7554 0 0 42.7554 0 95.5C0 148.245 42.7554 191 95.5 191C148.245 191 191 148.245 191 95.5ZM14.325 95.5C14.325 73.9711 22.8773 53.3239 38.1006 38.1006C53.3239 22.8773 73.9711 14.325 95.5 14.325C117.029 14.325 137.676 22.8773 152.899 38.1006C168.123 53.3239 176.675 73.9711 176.675 95.5C176.675 117.029 168.123 137.676 152.899 152.899C137.676 168.123 117.029 176.675 95.5 176.675C73.9711 176.675 53.3239 168.123 38.1006 152.899C22.8773 137.676 14.325 117.029 14.325 95.5V95.5Z" fill="#FFDA00"></path> </svg> 