<?xml version="1.0" encoding="UTF-8"?> <svg xmlns="http://www.w3.org/2000/svg" width="248" height="248" viewBox="0 0 248 248" fill="none"> <path d="M124 0C55.6264 0 0 55.6264 0 124C0 192.374 55.6264 248 124 248C192.374 248 248 192.374 248 124C248 55.6264 192.374 0 124 0ZM124 223.2C69.3036 223.2 24.8 178.696 24.8 124C24.8 69.3036 69.3036 24.8 124 24.8C178.696 24.8 223.2 69.3036 223.2 124C223.2 178.696 178.696 223.2 124 223.2Z" fill="#FFDA00"></path> <path d="M136.4 62H111.6V129.134L152.433 169.967L169.967 152.433L136.4 118.866V62Z" fill="#FFDA00"></path> </svg> 