<?xml version="1.0" encoding="UTF-8"?> <svg xmlns="http://www.w3.org/2000/svg" width="290" height="229" viewBox="0 0 290 229" fill="none"> <path d="M279.643 0H10.3571C4.62835 0 0 4.65156 0 10.4091V218.591C0 224.348 4.62835 229 10.3571 229H279.643C285.372 229 290 224.348 290 218.591V10.4091C290 4.65156 285.372 0 279.643 0ZM266.696 36.0415V205.58H23.3036V36.0415L14.3705 29.0479L27.0904 12.621L40.9431 23.453H249.089L262.942 12.621L275.662 29.0479L266.696 36.0415V36.0415ZM249.089 23.4205L145 104.741L40.9107 23.4205L27.058 12.5885L14.3382 29.0153L23.2712 36.009L133.834 122.404C137.013 124.887 140.925 126.235 144.951 126.235C148.978 126.235 152.89 124.887 156.069 122.404L266.696 36.0415L275.629 29.0479L262.91 12.621L249.089 23.4205Z" fill="#FFDA00"></path> </svg> 