<?xml version="1.0" encoding="UTF-8"?> <svg xmlns="http://www.w3.org/2000/svg" width="313" height="391" viewBox="0 0 313 391" fill="none"> <path d="M156.5 195.5C134.981 195.5 117.375 177.905 117.375 156.4C117.375 134.895 134.981 117.3 156.5 117.3C178.019 117.3 195.625 134.895 195.625 156.4C195.625 177.905 178.019 195.5 156.5 195.5ZM273.875 160.31C273.875 89.3435 222.034 39.1 156.5 39.1C90.9656 39.1 39.125 89.3435 39.125 160.31C39.125 206.057 77.2719 266.662 156.5 338.997C235.728 266.662 273.875 206.057 273.875 160.31ZM156.5 0C238.663 0 313 62.951 313 160.31C313 225.216 260.768 302.048 156.5 391C52.2319 302.048 0 225.216 0 160.31C0 62.951 74.3375 0 156.5 0Z" fill="#FFDA00"></path> </svg> 