<?xml version="1.0" encoding="UTF-8"?> <svg xmlns="http://www.w3.org/2000/svg" width="334" height="334" viewBox="0 0 334 334" fill="none"> <path d="M62.625 167H125.25V187.875H62.625V167ZM62.625 125.25H167V146.125H62.625V125.25ZM62.625 83.5H167V104.375H62.625V83.5Z" fill="#FFDA00"></path> <path d="M146.125 271.375H41.75V62.625H292.25V167H313.125V62.625C313.125 57.0886 310.926 51.779 307.011 47.8641C303.096 43.9493 297.786 41.75 292.25 41.75H41.75C36.2136 41.75 30.904 43.9493 26.9891 47.8641C23.0743 51.779 20.875 57.0886 20.875 62.625V271.375C20.875 276.911 23.0743 282.221 26.9891 286.136C30.904 290.051 36.2136 292.25 41.75 292.25H146.125V271.375Z" fill="#FFDA00"></path> <path d="M229.625 267.096L202.592 240.062L187.875 254.779L229.625 296.529L313.125 213.029L298.408 198.312L229.625 267.096Z" fill="#FFDA00"></path> </svg> 