<?xml version="1.0" encoding="UTF-8"?> <svg xmlns="http://www.w3.org/2000/svg" width="124" height="155" viewBox="0 0 124 155" fill="none"> <path d="M62 77.5C53.475 77.5 46.5 70.525 46.5 62C46.5 53.475 53.475 46.5 62 46.5C70.525 46.5 77.5 53.475 77.5 62C77.5 70.525 70.525 77.5 62 77.5ZM108.5 63.55C108.5 35.4175 87.9625 15.5 62 15.5C36.0375 15.5 15.5 35.4175 15.5 63.55C15.5 81.685 30.6125 105.71 62 134.385C93.3875 105.71 108.5 81.685 108.5 63.55ZM62 0C94.55 0 124 24.955 124 63.55C124 89.28 103.307 119.737 62 155C20.6925 119.737 0 89.28 0 63.55C0 24.955 29.45 0 62 0Z" fill="#FFDA00"></path> </svg> 