<?xml version="1.0" encoding="UTF-8"?> <svg xmlns="http://www.w3.org/2000/svg" width="415" height="415" viewBox="0 0 415 415" fill="none"> <path d="M12 47.5L84 15.5L168 111.5L138 171.5L156 235.5L234 287.5L296 235.5L398 313.5L357 396L266 389L156 351.5L84 287.5L52 235.5L12 159.5V47.5Z" fill="#FFDA00"></path> <path d="M11.8561 43.089L12.5411 42.661L99.1341 0L192.597 124.617L149.597 181.954C150.884 203.577 160.054 223.978 175.371 239.295C190.688 254.612 211.089 263.782 232.712 265.068L290.048 222.068L414.664 315.529L372.358 401.398L372.002 402.123L371.573 402.807C369.315 406.445 366.164 409.444 362.42 411.52C358.675 413.595 354.461 414.678 350.18 414.664H327.836C284.784 414.664 242.153 406.184 202.378 389.709C162.604 373.234 126.463 349.085 96.0207 318.643C65.5783 288.2 41.4301 252.06 24.9549 212.285C8.47965 172.51 -9.25182e-06 129.879 0.00012207 86.827V64.482C-0.0135862 60.2007 1.06875 55.9872 3.14404 52.2426C5.21934 48.4979 8.21854 45.3467 11.8561 43.089ZM32.0001 86.827C32.0001 249.952 164.712 382.664 327.836 382.664H345.916L374.222 325.201L290.042 262.066L243.175 297.215H237.842C205.921 297.179 175.318 284.483 152.746 261.911C130.174 239.34 117.478 208.736 117.442 176.815V171.482L152.591 124.616L89.4631 40.441L32.0001 68.752V86.827Z" fill="#2C3039"></path> </svg> 