<?xml version="1.0" encoding="UTF-8"?> <svg xmlns="http://www.w3.org/2000/svg" width="79" height="70" viewBox="0 0 79 70" fill="none"> <path d="M5.57143 31.7143H39V38H5.57143V31.7143ZM0 16H27.8571V22.2857H0V16Z" fill="#FFDA00"></path> <path d="M78.7701 33.7431L70.2552 11.4725C70.0367 10.9001 69.673 10.4122 69.2093 10.0695C68.7456 9.72673 68.2023 9.54419 67.6468 9.54453H59.1319V3.18151C59.1319 2.33772 58.8329 1.52849 58.3006 0.931844C57.7683 0.335195 57.0464 0 56.2936 0H10.8808V6.36302H53.4553V46.3101C52.162 47.1519 51.0301 48.2724 50.125 49.6069C49.2199 50.9414 48.5595 52.4636 48.1817 54.0857H30.3459C29.6551 51.0866 28.0121 48.4729 25.7251 46.7345C23.4381 44.9961 20.6639 44.2523 17.9226 44.6426C15.1814 45.0329 12.6612 46.5304 10.8345 48.8545C9.0078 51.1787 8 54.1698 8 57.2672C8 60.3646 9.0078 63.3557 10.8345 65.6798C12.6612 68.004 15.1814 69.5015 17.9226 69.8918C20.6639 70.2821 23.4381 69.5383 25.7251 67.7999C28.0121 66.0615 29.6551 63.4478 30.3459 60.4487H48.1817C48.7992 63.1792 50.2112 65.601 52.1945 67.3309C54.1777 69.0608 56.6189 70 59.1319 70C61.6449 70 64.0861 69.0608 66.0693 67.3309C68.0526 65.601 69.4646 63.1792 70.0821 60.4487H76.1617C76.9145 60.4487 77.6364 60.1135 78.1687 59.5169C78.701 58.9202 79 58.111 79 57.2672V34.9966C79.0001 34.5656 78.9219 34.1391 78.7701 33.7431V33.7431ZM19.3957 63.6302C18.273 63.6302 17.1755 63.257 16.242 62.5579C15.3085 61.8587 14.5809 60.8649 14.1512 59.7022C13.7216 58.5395 13.6092 57.2601 13.8282 56.0258C14.0472 54.7915 14.5879 53.6577 15.3818 52.7679C16.1756 51.878 17.1871 51.272 18.2883 51.0264C19.3894 50.7809 20.5308 50.9069 21.5681 51.3885C22.6053 51.8701 23.4919 52.6857 24.1156 53.7321C24.7394 54.7785 25.0723 56.0087 25.0723 57.2672C25.0708 58.9543 24.4723 60.5717 23.408 61.7647C22.3438 62.9576 20.9008 63.6285 19.3957 63.6302V63.6302ZM59.1319 15.9076H65.7735L71.8588 31.8151H59.1319V15.9076ZM59.1319 63.6302C58.0092 63.6302 56.9117 63.257 55.9782 62.5579C55.0446 61.8587 54.3171 60.8649 53.8874 59.7022C53.4578 58.5395 53.3454 57.2601 53.5644 56.0258C53.7834 54.7915 54.3241 53.6577 55.1179 52.7679C55.9118 51.878 56.9233 51.272 58.0245 51.0264C59.1256 50.7809 60.267 50.9069 61.3042 51.3885C62.3415 51.8701 63.2281 52.6857 63.8518 53.7321C64.4756 54.7785 64.8085 56.0087 64.8085 57.2672C64.807 58.9543 64.2084 60.5717 63.1442 61.7647C62.08 62.9576 60.637 63.6285 59.1319 63.6302ZM73.3234 54.0857H70.0821C69.4569 51.3605 68.0425 48.9449 66.0609 47.2176C64.0792 45.4903 61.6422 44.549 59.1319 44.5411V38.1781H73.3234V54.0857Z" fill="#FFDA00"></path> </svg> 