<?xml version="1.0" encoding="UTF-8"?> <svg xmlns="http://www.w3.org/2000/svg" width="827" height="262" viewBox="0 0 827 262" fill="none"> <path d="M326.332 73.8V103.744L289.624 71.14V127H301.936V97.056L338.72 129.66V73.8H326.332ZM358.476 127H385.304V116.436H358.476V127ZM358.476 84.364H385.304V73.8H358.476V84.364ZM358.476 104.2H383.784V93.864H358.476V104.2ZM349.964 73.8V127H362.276V73.8H349.964ZM409.057 102.908L423.953 127H439.001L422.357 102.908H409.057ZM395.757 73.8V127H408.601V73.8H395.757ZM403.813 84.668H414.225C415.947 84.668 417.417 84.9467 418.633 85.504C419.899 86.0613 420.862 86.872 421.521 87.936C422.179 88.9493 422.509 90.1907 422.509 91.66C422.509 93.1293 422.179 94.396 421.521 95.46C420.862 96.4733 419.899 97.2587 418.633 97.816C417.417 98.3227 415.947 98.576 414.225 98.576H403.813V108.532H415.137C419.697 108.532 423.497 107.797 426.537 106.328C429.577 104.859 431.882 102.832 433.453 100.248C435.023 97.6133 435.809 94.5987 435.809 91.204C435.809 87.7587 435.023 84.744 433.453 82.16C431.882 79.5253 429.577 77.4733 426.537 76.004C423.497 74.5347 419.697 73.8 415.137 73.8H403.813V84.668ZM444.584 73.8V109.52C444.584 112.864 445.116 115.777 446.18 118.26C447.295 120.743 448.815 122.795 450.74 124.416C452.716 125.987 454.996 127.177 457.58 127.988C460.164 128.799 462.951 129.204 465.94 129.204C468.929 129.204 471.716 128.799 474.3 127.988C476.935 127.177 479.215 125.987 481.14 124.416C483.116 122.795 484.636 120.743 485.7 118.26C486.815 115.777 487.372 112.864 487.372 109.52V73.8H474.528V108.608C474.528 111.293 473.819 113.472 472.4 115.144C470.981 116.816 468.828 117.652 465.94 117.652C463.103 117.652 460.975 116.816 459.556 115.144C458.137 113.472 457.428 111.293 457.428 108.608V73.8H444.584ZM498.253 73.8V127H511.477V73.8H498.253ZM517.253 127C523.08 127 528.121 125.911 532.377 123.732C536.633 121.553 539.926 118.488 542.257 114.536C544.588 110.533 545.753 105.821 545.753 100.4C545.753 94.928 544.588 90.216 542.257 86.264C539.926 82.312 536.633 79.2467 532.377 77.068C528.121 74.8893 523.08 73.8 517.253 73.8H506.765V85.2H516.797C518.824 85.2 520.774 85.4533 522.649 85.96C524.574 86.4667 526.246 87.3027 527.665 88.468C529.134 89.6333 530.3 91.204 531.161 93.18C532.022 95.1053 532.453 97.512 532.453 100.4C532.453 103.288 532.022 105.72 531.161 107.696C530.3 109.621 529.134 111.167 527.665 112.332C526.246 113.497 524.574 114.333 522.649 114.84C520.774 115.347 518.824 115.6 516.797 115.6H506.765V127H517.253ZM571.456 85.276H586.048V127H598.892V85.276H613.56V73.8H571.456V85.276ZM632.678 102.908L647.574 127H662.622L645.978 102.908H632.678ZM619.378 73.8V127H632.222V73.8H619.378ZM627.434 84.668H637.846C639.569 84.668 641.038 84.9467 642.254 85.504C643.521 86.0613 644.483 86.872 645.142 87.936C645.801 88.9493 646.13 90.1907 646.13 91.66C646.13 93.1293 645.801 94.396 645.142 95.46C644.483 96.4733 643.521 97.2587 642.254 97.816C641.038 98.3227 639.569 98.576 637.846 98.576H627.434V108.532H638.758C643.318 108.532 647.118 107.797 650.158 106.328C653.198 104.859 655.503 102.832 657.074 100.248C658.645 97.6133 659.43 94.5987 659.43 91.204C659.43 87.7587 658.645 84.744 657.074 82.16C655.503 79.5253 653.198 77.4733 650.158 76.004C647.118 74.5347 643.318 73.8 638.758 73.8H627.434V84.668ZM676.945 116.74H705.065L704.229 106.936H677.857L676.945 116.74ZM690.853 93.332L698.377 110.584L697.921 113.852L704.305 127H718.897L690.853 70.456L662.885 127H677.401L684.013 113.32L683.405 110.508L690.853 93.332ZM761.18 73.8V103.744L724.472 71.14V127H736.784V97.056L773.568 129.66V73.8H761.18ZM790.664 108.304L781.695 114.764C782.912 117.297 784.609 119.628 786.788 121.756C788.966 123.884 791.525 125.581 794.464 126.848C797.453 128.064 800.67 128.672 804.116 128.672C806.598 128.672 809.005 128.292 811.336 127.532C813.717 126.823 815.82 125.759 817.644 124.34C819.518 122.921 820.988 121.173 822.052 119.096C823.166 116.968 823.724 114.561 823.724 111.876C823.724 109.647 823.369 107.671 822.66 105.948C821.95 104.225 820.962 102.705 819.696 101.388C818.48 100.071 817.061 98.956 815.44 98.044C813.818 97.0813 812.07 96.2453 810.196 95.536C807.713 94.6747 805.585 93.864 803.812 93.104C802.089 92.344 800.746 91.508 799.784 90.596C798.872 89.684 798.416 88.62 798.416 87.404C798.416 86.2387 798.897 85.276 799.86 84.516C800.822 83.7053 802.216 83.3 804.04 83.3C805.408 83.3 806.674 83.5787 807.84 84.136C809.056 84.6427 810.145 85.3773 811.108 86.34C812.121 87.252 813.008 88.3413 813.768 89.608L823.572 84.136C822.66 82.312 821.342 80.5133 819.62 78.74C817.897 76.9667 815.718 75.4973 813.084 74.332C810.5 73.1667 807.434 72.584 803.888 72.584C800.442 72.584 797.301 73.192 794.464 74.408C791.677 75.5733 789.448 77.296 787.776 79.576C786.154 81.856 785.344 84.5667 785.344 87.708C785.344 90.3427 785.825 92.5973 786.788 94.472C787.75 96.296 788.966 97.8667 790.436 99.184C791.905 100.451 793.45 101.489 795.072 102.3C796.744 103.111 798.213 103.744 799.48 104.2C802.064 105.163 804.141 106.024 805.712 106.784C807.282 107.544 808.422 108.355 809.132 109.216C809.841 110.027 810.196 111.116 810.196 112.484C810.196 114.105 809.588 115.397 808.372 116.36C807.156 117.272 805.61 117.728 803.736 117.728C801.962 117.728 800.265 117.348 798.644 116.588C797.073 115.828 795.604 114.739 794.236 113.32C792.918 111.901 791.728 110.229 790.664 108.304ZM295.476 177.304L286.508 183.764C287.724 186.297 289.421 188.628 291.6 190.756C293.779 192.884 296.337 194.581 299.276 195.848C302.265 197.064 305.483 197.672 308.928 197.672C311.411 197.672 313.817 197.292 316.148 196.532C318.529 195.823 320.632 194.759 322.456 193.34C324.331 191.921 325.8 190.173 326.864 188.096C327.979 185.968 328.536 183.561 328.536 180.876C328.536 178.647 328.181 176.671 327.472 174.948C326.763 173.225 325.775 171.705 324.508 170.388C323.292 169.071 321.873 167.956 320.252 167.044C318.631 166.081 316.883 165.245 315.008 164.536C312.525 163.675 310.397 162.864 308.624 162.104C306.901 161.344 305.559 160.508 304.596 159.596C303.684 158.684 303.228 157.62 303.228 156.404C303.228 155.239 303.709 154.276 304.672 153.516C305.635 152.705 307.028 152.3 308.852 152.3C310.22 152.3 311.487 152.579 312.652 153.136C313.868 153.643 314.957 154.377 315.92 155.34C316.933 156.252 317.82 157.341 318.58 158.608L328.384 153.136C327.472 151.312 326.155 149.513 324.432 147.74C322.709 145.967 320.531 144.497 317.896 143.332C315.312 142.167 312.247 141.584 308.7 141.584C305.255 141.584 302.113 142.192 299.276 143.408C296.489 144.573 294.26 146.296 292.588 148.576C290.967 150.856 290.156 153.567 290.156 156.708C290.156 159.343 290.637 161.597 291.6 163.472C292.563 165.296 293.779 166.867 295.248 168.184C296.717 169.451 298.263 170.489 299.884 171.3C301.556 172.111 303.025 172.744 304.292 173.2C306.876 174.163 308.953 175.024 310.524 175.784C312.095 176.544 313.235 177.355 313.944 178.216C314.653 179.027 315.008 180.116 315.008 181.484C315.008 183.105 314.4 184.397 313.184 185.36C311.968 186.272 310.423 186.728 308.548 186.728C306.775 186.728 305.077 186.348 303.456 185.588C301.885 184.828 300.416 183.739 299.048 182.32C297.731 180.901 296.54 179.229 295.476 177.304ZM331.804 154.276H346.396V196H359.24V154.276H373.908V142.8H331.804V154.276ZM393.026 171.908L407.922 196H422.97L406.326 171.908H393.026ZM379.726 142.8V196H392.57V142.8H379.726ZM387.782 153.668H398.194C399.916 153.668 401.386 153.947 402.602 154.504C403.868 155.061 404.831 155.872 405.49 156.936C406.148 157.949 406.478 159.191 406.478 160.66C406.478 162.129 406.148 163.396 405.49 164.46C404.831 165.473 403.868 166.259 402.602 166.816C401.386 167.323 399.916 167.576 398.194 167.576H387.782V177.532H399.106C403.666 177.532 407.466 176.797 410.506 175.328C413.546 173.859 415.851 171.832 417.422 169.248C418.992 166.613 419.778 163.599 419.778 160.204C419.778 156.759 418.992 153.744 417.422 151.16C415.851 148.525 413.546 146.473 410.506 145.004C407.466 143.535 403.666 142.8 399.106 142.8H387.782V153.668ZM439.497 169.4C439.497 166.259 440.105 163.497 441.321 161.116C442.587 158.684 444.335 156.784 446.565 155.416C448.845 154.048 451.505 153.364 454.545 153.364C457.635 153.364 460.295 154.048 462.525 155.416C464.754 156.784 466.477 158.684 467.693 161.116C468.909 163.497 469.517 166.259 469.517 169.4C469.517 172.541 468.883 175.328 467.617 177.76C466.401 180.141 464.653 182.016 462.373 183.384C460.143 184.752 457.534 185.436 454.545 185.436C451.505 185.436 448.845 184.752 446.565 183.384C444.335 182.016 442.587 180.141 441.321 177.76C440.105 175.328 439.497 172.541 439.497 169.4ZM425.893 169.4C425.893 173.504 426.577 177.279 427.945 180.724C429.363 184.169 431.339 187.159 433.873 189.692C436.457 192.225 439.497 194.201 442.993 195.62C446.489 196.988 450.339 197.672 454.545 197.672C458.699 197.672 462.525 196.988 466.021 195.62C469.517 194.201 472.531 192.225 475.065 189.692C477.649 187.159 479.625 184.169 480.993 180.724C482.411 177.279 483.121 173.504 483.121 169.4C483.121 165.296 482.411 161.547 480.993 158.152C479.574 154.757 477.573 151.819 474.989 149.336C472.405 146.853 469.365 144.953 465.869 143.636C462.423 142.268 458.649 141.584 454.545 141.584C450.491 141.584 446.717 142.268 443.221 143.636C439.725 144.953 436.685 146.853 434.101 149.336C431.517 151.819 429.49 154.757 428.021 158.152C426.602 161.547 425.893 165.296 425.893 169.4ZM518.918 142.8L508.506 162.788L498.094 142.8H483.35L501.97 174.416V196H515.042V174.34L533.662 142.8H518.918Z" fill="white"></path> <rect width="130.505" height="130.601" transform="matrix(0.865865 -0.500278 0 1 131 131.399)" fill="#FFDA00"></rect> <path d="M23.0507 68.6754L131 6.35085L238.949 68.6754V193.325L131 255.649L23.0507 193.325V68.6754Z" stroke="white" stroke-width="11"></path> <path d="M116.433 41.1623L147.912 62.3051L73 61.8599L131.724 101.301L145.354 93.7295L113.874 72.5866L188.871 72.9851L130.147 33.5435L116.433 41.1623Z" fill="white"></path> <path d="M173.834 181.18L164 195.043C165.333 197.48 167.195 199.357 169.583 200.671C171.972 201.986 174.778 202.514 178 202.256C181.278 201.902 184.806 200.634 188.584 198.451C191.306 196.878 193.945 194.873 196.501 192.433C199.112 190.027 201.418 187.347 203.418 184.395C205.473 181.411 207.084 178.266 208.251 174.961C209.473 171.56 210.084 168.159 210.084 164.759C210.084 161.936 209.695 159.658 208.918 157.926C208.14 156.194 207.057 154.895 205.668 154.029C204.334 153.131 202.779 152.618 201.001 152.49C199.223 152.298 197.306 152.347 195.251 152.637C192.528 153.119 190.195 153.44 188.251 153.601C186.362 153.73 184.889 153.522 183.834 152.977C182.834 152.4 182.334 151.341 182.334 149.801C182.334 148.326 182.862 146.802 183.917 145.229C184.973 143.593 186.501 142.197 188.501 141.041C190.001 140.175 191.39 139.725 192.667 139.692C194.001 139.564 195.195 139.804 196.251 140.413C197.362 140.926 198.334 141.744 199.167 142.866L209.918 129.726C208.918 127.993 207.473 126.55 205.584 125.396C203.695 124.242 201.306 123.761 198.417 123.955C195.584 124.116 192.223 125.32 188.334 127.567C184.556 129.75 181.112 132.51 178 135.847C174.945 139.089 172.5 142.682 170.667 146.629C168.889 150.544 168 154.49 168 158.468C168 161.805 168.528 164.355 169.583 166.119C170.639 167.819 171.972 169.038 173.584 169.775C175.195 170.448 176.889 170.785 178.667 170.784C180.5 170.751 182.112 170.623 183.5 170.398C186.334 169.98 188.612 169.754 190.334 169.722C192.056 169.689 193.306 169.993 194.084 170.635C194.862 171.212 195.251 172.367 195.251 174.099C195.251 176.152 194.584 178.174 193.251 180.163C191.917 182.089 190.223 183.645 188.167 184.833C186.223 185.956 184.362 186.55 182.584 186.615C180.861 186.648 179.25 186.199 177.75 185.269C176.306 184.307 175 182.944 173.834 181.18Z" fill="#2C3039"></path> <path d="M50 122.533L65.533 132.543V185.382L79.2052 194.193V141.354L94.819 151.416V136.883L50 108V122.533Z" fill="white"></path> </svg> 